<?xml version="1.0" standalone="no"?>
<!DOCTYPE svg PUBLIC "-//W3C//DTD SVG 20010904//EN"
 "http://www.w3.org/TR/2001/REC-SVG-20010904/DTD/svg10.dtd">
<svg version="1.0" xmlns="http://www.w3.org/2000/svg"
 width="800.000000pt" height="600.000000pt" viewBox="0 0 800.000000 600.000000"
 preserveAspectRatio="xMidYMid meet">

<g transform="translate(0.000000,600.000000) scale(0.100000,-0.100000)"
fill="#000000" stroke="none">
<path d="M2820 5048 c-47 -4 -102 -11 -123 -15 l-38 -8 119 -160 c65 -88 164
-222 220 -298 57 -76 105 -144 108 -151 3 -7 -27 -57 -67 -110 -59 -80 -74
-95 -84 -84 -8 7 -122 166 -255 353 -133 187 -248 348 -255 359 -13 18 -16 17
-77 -20 -121 -74 -258 -225 -327 -361 -31 -63 -67 -196 -82 -308 -20 -147 -20
-2369 0 -2500 37 -247 113 -399 275 -553 155 -147 324 -216 586 -241 124 -12
2236 -12 2360 0 281 27 440 97 610 268 142 144 206 273 247 492 15 85 17 202
19 1234 1 1119 0 1275 -15 1275 -4 0 -83 -103 -177 -230 l-169 -229 -327 -1
c-181 0 -328 3 -328 6 0 5 142 199 355 484 55 74 104 140 108 147 5 8 -75 125
-233 338 l-241 325 -430 0 c-236 0 -429 -2 -429 -5 0 -2 106 -148 235 -322
129 -175 233 -323 230 -330 -4 -11 -216 -302 -409 -560 l-61 -82 -328 -3
c-180 -2 -327 1 -327 5 0 4 103 146 228 315 126 170 232 313 236 320 7 12 -22
54 -332 470 l-144 193 -297 -2 c-163 -2 -334 -7 -381 -11z m2670 -2048 c0 -7
-500 -10 -1480 -10 -814 0 -1483 0 -1487 -1 -4 0 -9 4 -11 10 -3 8 428 11
1487 11 987 0 1491 -3 1491 -10z m0 -770 c0 -7 -503 -10 -1490 -10 -987 0
-1490 3 -1490 10 0 7 503 10 1490 10 987 0 1490 -3 1490 -10z"/>
</g>
</svg>
